PathFileType	4	(X/Y/Z)	C:/Users/beibeiliu/ov580/test_trc/User2\sequence.30_training_dense_right.trc
DataRate	CameraRate	NumFrames	NumMarkers	Units	OrigDataRate	OrigDataStartFrame	OrigNumFrames
120	120	20	19	mm	120	189	302
Frame#	Time	ThumbCMC			ThumbMCP			ThumbIP			ThumbTip			IndexMCP			IndexPIP			IndexTip			MiddleMCP			MiddlePIP			MiddleTip			RingMCP			RingPIP			RingTip			PinkyMCP			PinkyPIP			PinkyTip			BackHand1			BackHand2			BackHand3	
		X0	Y0	Z0	X1	Y1	Z1	X2	Y2	Z2	X3	Y3	Z3	X4	Y4	Z4	X5	Y5	Z5	X6	Y6	Z6	X7	Y7	Z7	X8	Y8	Z8	X9	Y9	Z9	X10	Y10	Z10	X11	Y11	Z11	X12	Y12	Z12	X13	Y13	Z13	X14	Y14	Z14	X15	Y15	Z15	X16	Y16	Z16	X17	Y17	Z17	X18	Y18	Z18	
188	1.56667	39.2002	-1.12023	87.2369	14.4851	-23.5387	67.9518	4.61648	-41.8362	36.9018	5.69575	-56.8667	14.5776	35.4929	11.9775	0.952461	28.6437	-11.3183	-23.4278	27.4606	-42.6456	-24.5203	57.1293	7.37856	-11.7485	53.3543	-19.3375	-33.9359	43.3213	-59.918	-26.1425	77.6179	-6.36942	-9.41708	71.291	-31.8259	-26.6488	58.6282	-64.9398	-16.2608	98.3188	-18.7858	2.9802	85.2339	-46.4088	-12.8854	68.068	-71.1521	-3.45871	98.2175	15.7365	49.3801	103.422	22.572	77.0104	70.1971	27.5152	70.9911	
189	1.575	34.763	-6.77772	85.5738	15.2636	-30.3144	66.1901	3.31621	-52.4571	38.5187	9.56086	-66.5921	17.3535	35.837	0.949486	4.02829	26.1246	-23.6163	-21.6338	24.1173	-54.2339	-19.7396	56.8468	-3.31301	-11.1828	46.7888	-35.1892	-32.2144	42.3538	-69.4046	-21.8405	76.689	-18.0986	-11.0933	67.5395	-44.0956	-22.86	61.219	-74.5949	-8.55905	102.311	-28.1183	5.61124	83.8867	-56.1617	-7.94706	71.4368	-77.3682	4.69491	98.6628	10.6794	46.9377	103.398	17.9621	78.3451	65.0991	21.3737	69.2394	
190	1.58333	35.741	-11.071	91.6658	14.8219	-35.9341	70.3457	3.12106	-58.5579	46.8491	6.77081	-74.4577	21.4781	30.4408	-7.32707	4.4565	23.2552	-31.6008	-17.482	22.6075	-65.8405	-15.408	54.3717	-11.0672	-5.85354	46.546	-45.227	-27.8414	42.3209	-81.0307	-13.9538	72.7267	-25.7346	-8.75774	64.9673	-51.4054	-19.5966	55.9424	-83.8468	-1.68399	94.7816	-31.8608	8.3133	82.3567	-61.5641	-5.94989	70.3864	-84.3833	9.12355	94.9665	3.99328	45.1888	101.993	13.5956	80.5864	61.2197	17.1004	70.2736	
191	1.59167	32.7959	-14.6922	89.2266	14.3774	-38.2449	77.2586	-2.56131	-62.7114	48.3657	-1.40756	-78.494	30.4107	28.604	-13.2703	4.62938	19.5789	-34.9142	-14.2902	16.0948	-65.6174	-14.3462	49.6158	-17.8288	-7.99578	42.2967	-46.6028	-25.2497	35.1207	-83.3663	-13.2619	71.3172	-26.4311	-4.07843	59.1797	-54.0556	-17.4812	48.8907	-84.002	-1.25181	92.6135	-36.3143	6.57254	79.9685	-65.8548	-5.57959	61.9605	-87.6083	10.5528	87.6864	3.95016	48.4806	96.6973	10.0967	80.8727	60.7174	11.8113	68.5854	
192	1.6	28.2806	-15.4872	93.5423	5.46309	-40.5702	79.1496	-4.31294	-60.0766	50.8449	-7.24012	-77.2494	32.1449	19.6581	-10.6577	10.8159	16.1511	-31.157	-11.0163	10.9452	-67.3156	-13.8931	44.7614	-15.9789	-4.60225	33.8549	-45.5967	-23.4179	26.8943	-81.8217	-16.8343	61.8224	-26.7357	-4.95076	56.2231	-52.109	-18.4697	40.487	-83.9669	-4.03457	81.6574	-35.0959	7.64969	71.204	-63.3037	-7.13268	60.3661	-88.306	2.19817	84.5783	0.501158	50.6494	92.0628	8.33644	79.5111	56.3705	12.8232	76.7324	
193	1.60833	29.3097	-15.132	97.4882	3.12748	-38.0176	76.3455	-10.0627	-57.1721	56.2473	-13.2044	-72.1413	30.9308	17.9591	-4.69436	15.0055	8.41583	-23.8854	-10.2117	2.62272	-58.8409	-15.522	37.5582	-10.6938	-2.64379	28.3598	-34.2907	-23.6134	20.8646	-71.6117	-22.7719	61.1855	-19.937	-0.835658	46.8589	-45.732	-19.3777	35.0299	-78.8624	-13.2713	83.5208	-32.4973	8.52964	67.2552	-59.058	-10.7043	54.0145	-84.9521	-5.78596	83.6101	3.21815	47.8509	95.8429	8.59992	82.7246	55.3357	13.2085	78.8397	
194	1.61667	24.916	-14.154	96.543	0.755955	-35.3362	76.8209	-14.4007	-52.5109	50.3544	-14.6003	-65.7137	28.6397	17.3366	0.270246	10.3277	5.73451	-17.5174	-13.025	5.113	-48.1584	-20.4277	37.4494	-3.11601	-5.1174	28.5837	-27.6691	-28.6567	19.3731	-62.7219	-31.5819	58.0221	-14.097	-3.92472	48.9767	-35.464	-23.8972	37.2392	-66.538	-25.6647	75.1777	-25.8552	4.38789	68.3989	-47.6389	-13.4456	50.4667	-70.2146	-15.9233	79.3734	4.88974	48.8685	92.3175	10.7583	81.4292	51.9882	15.7425	76.5046	
195	1.625	27.3252	-11.7267	89.8015	3.98258	-31.4674	70.3537	-10.9914	-47.9462	47.2781	-10.4635	-59.0343	22.0387	17.7118	5.82177	8.00958	5.53703	-9.85224	-16.5494	-0.0644187	-43.7273	-24.3772	36.2315	4.79722	-5.60462	27.2788	-18.1393	-32.3553	23.5554	-52.1315	-39.3791	61.1301	-8.37677	-8.19779	51.1308	-25.6855	-28.7095	36.7566	-56.7149	-34.9256	79.624	-20.6279	0.336934	71.6601	-40.9756	-19.1038	50.3224	-63.6191	-26.372	79.5073	7.48366	51.3347	93.1792	9.9056	80.0017	55.4166	15.8701	75.72	
196	1.63333	29.5006	-11.3328	86.7174	6.80026	-29.6254	64.5542	-7.14434	-45.3585	39.9246	-10.2987	-57.2367	14.705	21.0903	10.9125	3.04342	11.5342	-5.52904	-21.0876	5.6422	-37.1778	-30.1128	42.8728	8.49125	-10.957	33.9052	-12.6331	-38.5505	25.8149	-50.1881	-45.0629	63.9336	-1.55405	-10.2083	57.7697	-20.4923	-35.1973	44.4337	-50.1263	-42.8979	83.1221	-16.4985	-0.358569	74.4104	-38.2893	-25.8412	63.2553	-57.2156	-36.2376	87.8419	11.0285	44.1979	98.0529	9.78353	80.1687	58.7532	17.0275	71.1048	
197	1.64167	33.562	-10.9285	82.7386	8.67265	-28.951	57.6307	-4.74819	-44.1369	31.2215	-0.938322	-56.7148	9.8133	29.6258	11.7257	-0.00364663	20.25	-6.02234	-28.7519	18.6369	-34.7377	-35.3145	50.3358	11.2253	-10.6347	41.9431	-7.60331	-41.0479	34.8841	-49.4117	-48.9057	70.9397	-0.798051	-13.3964	65.7763	-20.7704	-39.7894	50.3237	-46.3773	-46.7435	96.3191	-16.9296	-3.18348	83.2055	-36.9643	-29.2232	68.2718	-56.4901	-36.9398	90.6287	9.06937	41.9126	98.429	9.99413	79.2776	60.2028	19.8854	68.2757	
198	1.65	38.8897	-11.3275	76.7244	17.5953	-30.2495	57.1428	3.0021	-46.5773	26.9023	5.09598	-59.9979	-0.458807	36.9938	11.2949	-3.11061	31.4738	-7.68298	-33.8326	24.1141	-41.1915	-39.6771	63.1498	7.12773	-18.1289	48.8265	-13.5969	-46.6443	42.8181	-50.7267	-51.9369	83.4392	-4.95216	-16.3753	74.2019	-24.3152	-43.4057	60.1496	-50.0216	-47.2526	103.262	-19.7526	-7.00778	94.3549	-41.7235	-31.2781	80.9537	-61.2316	-39.1795	97.6102	6.98333	41.6621	102.44	11.2058	71.8049	69.0802	16.6129	64.0564	
199	1.65833	42.0131	-13.4045	69.1626	18.6574	-34.597	48.2169	10.9525	-51.5339	20.2636	15.1468	-65.4017	-1.04348	46.4037	3.45962	-12.0824	35.8804	-11.6359	-36.4205	35.0745	-44.8136	-41.4004	69.4198	1.33583	-22.6489	60.0199	-19.8071	-48.3579	55.1386	-60.9662	-50.4203	90.9467	-11.3948	-19.3732	80.5663	-31.1795	-43.4881	69.4029	-63.9645	-45.7488	112.149	-25.6796	-5.38987	101.983	-48.4161	-31.7091	85.9902	-70.3642	-35.6841	104.617	3.60408	35.7711	108.421	7.28645	72.4176	69.0904	16.6471	60.4981	
200	1.66667	44.6694	-17.7813	70.2564	24.4096	-39.6422	52.3814	14.2504	-59.1495	20.8834	17.8054	-74.1391	-0.342174	48.1151	-3.30104	-11.6392	42.3914	-23.83	-38.989	39.5676	-56.0081	-40.1446	74.9316	-8.93569	-24.8213	68.2451	-32.2702	-49.4619	60.8084	-70.8437	-48.3511	95.9742	-20.1494	-21.1785	88.6521	-44.4783	-42.5943	74.646	-77.3221	-40.4587	117.569	-33.212	-6.0085	104.735	-57.2831	-29.2565	89.414	-81.585	-30.4513	103.265	0.835272	36.5089	113.631	3.47163	72.2513	74.8512	11.1122	56.4388	
201	1.675	43.1521	-20.8932	73.0316	22.8265	-45.3289	50.0462	14.4057	-64.9949	26.6577	19.1066	-82.0322	2.77516	48.5775	-11.548	-11.7361	44.6029	-34.3932	-38.7044	39.5671	-66.1829	-37.5985	75.8765	-17.8502	-23.8906	63.9085	-42.2118	-48.8876	57.8924	-83.2072	-43.8	97.1276	-28.2241	-18.8839	91.0988	-51.809	-40.9635	72.1545	-82.7536	-37.2268	115.95	-40.0729	-4.27212	108.559	-63.8303	-26.734	89.4784	-89.9692	-24.1447	108.315	-7.24214	34.8369	110.421	1.27806	67.945	72.0974	5.16347	58.0639	
202	1.68333	42.4212	-25.9023	71.0767	22.7633	-50.2715	54.8724	11.9372	-72.3281	27.3644	20.3522	-87.2915	6.44599	44.6991	-18.9417	-14.405	41.347	-42.8941	-36.1232	38.3197	-75.9254	-33.9862	69.1888	-23.43	-20.5391	63.2351	-52.3802	-47.168	53.197	-86.427	-40.8958	89.6231	-33.9125	-20.2671	84.0496	-60.5906	-40.0539	70.7471	-88.9583	-34.2583	113.39	-47.0008	-5.60559	101.339	-69.974	-25.434	86.9588	-97.3631	-22.919	105.609	-10.0453	37.2087	111.881	-5.70857	66.7084	72.4533	0.825401	56.2255	
203	1.69167	35.6407	-27.778	72.9903	16.1332	-52.6525	58.4454	9.35791	-75.3099	31.2851	13.2051	-92.3508	9.66366	39.8822	-24.9685	-12.3183	32.6979	-46.8884	-33.3988	27.7925	-83.1239	-30.2054	64.8139	-29.6973	-23.475	56.3799	-56.9902	-43.8271	49.7294	-94.623	-36.6283	86.8884	-39.3312	-18.7962	75.812	-65.5702	-38.7338	64.1751	-96.465	-30.1818	104.405	-50.9264	-7.32785	92.5743	-75.523	-23.7821	79.9257	-99.0125	-22.3036	100.251	-14.4984	36.2546	111	-7.52382	70.0598	68.1948	-0.243126	55.014	
204	1.7	35.3714	-29.9665	79.4742	15.47	-53.8481	61.166	2.07266	-75.726	36.1288	5.319	-92.9757	16.6724	36.1099	-27.1703	-9.78756	25.1368	-50.1392	-29.926	23.7602	-85.4287	-28.4872	59.6454	-32.1607	-19.7309	51.6885	-59.6499	-41.3742	39.2606	-95.297	-36.1734	77.1461	-41.0207	-19.108	70.4229	-68.0722	-36.9711	53.2582	-96.375	-29.4147	97.8679	-51.7051	-3.22393	89.0928	-77.4546	-23.3553	72.339	-99.1672	-23.3646	95.0531	-18.7915	38.8354	104.249	-9.89206	68.3104	64.4116	-3.70053	58.9774	
205	1.70833	31.6155	-30.7217	81.9852	7.22625	-52.4657	68.3031	-3.35164	-73.7261	41.655	0.617039	-89.3099	19.0745	28.863	-26.2634	-4.85616	18.2514	-48.1475	-26.4861	14.8372	-75.9725	-28.9185	53.6388	-29.5382	-13.0309	43.9046	-55.0882	-38.2625	33.4093	-95.3685	-36.0499	73.1152	-39.676	-16.8916	61.6848	-60.8354	-34.0317	46.4177	-91.1914	-30.4312	90.3212	-49.6347	1.25485	80.6123	-71.5386	-22.3586	63.8657	-96.5711	-26.6263	92.6458	-16.921	39.0324	98.0227	-8.42203	72.9949	61.5695	-3.06002	61.3813	
206	1.71667	28.3922	-28.8715	85.0792	5.0387	-51.3839	68.5605	-9.52931	-71.3793	41.86	-7.6614	-85.5128	20.6138	23.491	-20.5561	0.109944	11.6867	-39.0035	-21.6044	7.64653	-71.1219	-28.7366	46.8248	-22.7761	-9.24107	37.5448	-46.9267	-37.3217	25.1714	-84.4444	-39.4267	67.3907	-33.3138	-10.5546	55.6264	-57.4271	-34.6347	41.7657	-89.0082	-34.9161	84.8831	-45.6419	1.08552	71.1051	-65.5533	-22.7157	59.3215	-87.551	-30.0066	83.7015	-13.7933	42.86	96.4661	-9.43218	71.636	58.2148	-3.80345	64.9127	
207	1.725	28.0858	-27.9389	90.2209	5.82021	-47.7901	69.7956	-13.9634	-65.3725	44.335	-13.7724	-79.3584	22.5928	16.8252	-12.7707	4.51	8.34805	-29.7214	-20.7253	2.32916	-58.75	-28.2056	39.9313	-16.5688	-11.1375	31.91	-35.8668	-36.1789	18.71	-73.1335	-43.5315	62.7038	-26.1246	-8.17126	50.7409	-47.8795	-35.3733	38.5045	-73.7585	-40.7315	80.4483	-39.1844	2.33096	70.9162	-58.604	-25.0523	55.2149	-76.7478	-34.4324	81.8571	-8.82251	45.0247	97.08	-5.27983	76.9162	56.2593	1.07166	71.2018	
